<svg xmlns="http://www.w3.org/2000/svg" viewBox="0 0 100 130">

  <!-- ══ HAIR (back layer) ══ -->
  <ellipse cx="50" cy="11" rx="14" ry="9" fill="#7B4F2E"/>
  <ellipse cx="32" cy="25" rx="5.5" ry="11.5" fill="#7B4F2E"/>
  <ellipse cx="68" cy="25" rx="5.5" ry="11.5" fill="#7B4F2E"/>

  <!-- ══ EARS ══ -->
  <ellipse cx="38.2" cy="17.5" rx="3" ry="4" fill="#F5C89A"/>
  <ellipse cx="61.8" cy="17.5" rx="3" ry="4" fill="#F5C89A"/>

  <!-- ══ HEAD ══ -->
  <ellipse cx="50" cy="17" rx="12.5" ry="13.5" fill="#FDDBB4"/>

  <!-- ══ BANGS ══ -->
  <path d="M37.5,10 C40,5.5 60,5.5 62.5,10 C62.5,10 61,16 57,15 C53,14 50,15 50,15 C50,15 47,14 43,15 C39,16 37.5,10 37.5,10 Z" fill="#7B4F2E"/>

  <!-- ══ FACE FEATURES ══ -->
  <!-- Eyebrows -->
  <path d="M41.5,12.5 Q44,11 46.5,12.5" stroke="#5C3317" stroke-width="0.9" fill="none" stroke-linecap="round"/>
  <path d="M53.5,12.5 Q56,11 58.5,12.5" stroke="#5C3317" stroke-width="0.9" fill="none" stroke-linecap="round"/>

  <!-- Eyes -->
  <ellipse cx="44" cy="16" rx="2.3" ry="2.8" fill="#1A0F0A"/>
  <ellipse cx="56" cy="16" rx="2.3" ry="2.8" fill="#1A0F0A"/>
  <!-- Eye shine -->
  <ellipse cx="44.9" cy="15" rx="0.8" ry="1" fill="white"/>
  <ellipse cx="56.9" cy="15" rx="0.8" ry="1" fill="white"/>

  <!-- Nose -->
  <path d="M49,20.5 C49,21.5 50,22 51,21.5 L51,20.5" stroke="#D4956A" stroke-width="0.6" fill="none" stroke-linecap="round"/>

  <!-- Mouth (smile) -->
  <path d="M46.5,23 Q50,26 53.5,23" stroke="#C97060" stroke-width="1.1" fill="none" stroke-linecap="round"/>

  <!-- Blush cheeks -->
  <ellipse cx="41" cy="20" rx="4" ry="2.5" fill="#F08080" opacity="0.28"/>
  <ellipse cx="59" cy="20" rx="4" ry="2.5" fill="#F08080" opacity="0.28"/>

  <!-- Hair ties -->
  <circle cx="32" cy="15" r="2.5" fill="#FF6B6B"/>
  <circle cx="68" cy="15" r="2.5" fill="#FF6B6B"/>
  <circle cx="32" cy="15" r="1" fill="#FFAAAA"/>
  <circle cx="68" cy="15" r="1" fill="#FFAAAA"/>

  <!-- ══ NECK ══ -->
  <rect x="45.5" y="29.5" width="9" height="6.5" rx="3.5" fill="#FDDBB4"/>

  <!-- ══ LEFT ARM ══ -->
  <!-- Skin arm behind body -->
  <path d="M29.5,35 C24,41 20,49 18,57" stroke="#FDDBB4" stroke-width="9.5" stroke-linecap="round" fill="none"/>
  <!-- Sleeve cap (over skin) -->
  <path d="M29.5,35 C25.5,41 22.5,46 21,50" stroke="#A8D8EA" stroke-width="10" stroke-linecap="round" fill="none"/>
  <!-- Forearm -->
  <path d="M21,50 C19.5,54.5 17.5,58 16,62" stroke="#FDDBB4" stroke-width="8.5" stroke-linecap="round" fill="none"/>

  <!-- ══ RIGHT ARM ══ -->
  <path d="M70.5,35 C76,41 80,49 82,57" stroke="#FDDBB4" stroke-width="9.5" stroke-linecap="round" fill="none"/>
  <path d="M70.5,35 C74.5,41 77.5,46 79,50" stroke="#A8D8EA" stroke-width="10" stroke-linecap="round" fill="none"/>
  <path d="M79,50 C80.5,54.5 82.5,58 84,62" stroke="#FDDBB4" stroke-width="8.5" stroke-linecap="round" fill="none"/>

  <!-- ══ DRESS BODICE ══ -->
  <path d="M28,35 C36,31.5 50,31 64,31.5 C72,33 72,35 72,35 L69.5,58 L30.5,58 Z" fill="#A8D8EA"/>
  <!-- V-neck -->
  <path d="M44.5,31.5 L50,37 L55.5,31.5" fill="#88C4DC" stroke="#80B8D0" stroke-width="0.5"/>
  <!-- Sleeve trim -->
  <path d="M28,35 C25,40 23,44 21.5,48" stroke="#88C4DC" stroke-width="1.5" fill="none" stroke-linecap="round"/>
  <path d="M72,35 C75,40 77,44 78.5,48" stroke="#88C4DC" stroke-width="1.5" fill="none" stroke-linecap="round"/>

  <!-- ══ DRESS SKIRT ══ -->
  <path d="M28,56 Q50,53 72,56 L79,93 L21,93 Z" fill="#A8D8EA"/>
  <!-- Waist band -->
  <rect x="27.5" y="55" width="45" height="4.5" rx="2" fill="#88C4DC"/>
  <!-- Skirt hem -->
  <path d="M21,93 Q50,97 79,93" stroke="#88C4DC" stroke-width="1.5" fill="none"/>

  <!-- ══ HANDS ══ -->
  <ellipse cx="14.5" cy="64.5" rx="5.5" ry="4.5" fill="#FDDBB4"/>
  <ellipse cx="85.5" cy="64.5" rx="5.5" ry="4.5" fill="#FDDBB4"/>
  <!-- Finger lines -->
  <path d="M11.5,63 L11.5,66.5" stroke="#D4956A" stroke-width="0.5" stroke-linecap="round"/>
  <path d="M14.5,62.3 L14.5,66.8" stroke="#D4956A" stroke-width="0.5" stroke-linecap="round"/>
  <path d="M17.5,63 L17.5,66.5" stroke="#D4956A" stroke-width="0.5" stroke-linecap="round"/>
  <path d="M82.5,63 L82.5,66.5" stroke="#D4956A" stroke-width="0.5" stroke-linecap="round"/>
  <path d="M85.5,62.3 L85.5,66.8" stroke="#D4956A" stroke-width="0.5" stroke-linecap="round"/>
  <path d="M88.5,63 L88.5,66.5" stroke="#D4956A" stroke-width="0.5" stroke-linecap="round"/>

  <!-- ══ LEGS ══ -->
  <rect x="33" y="91" width="14" height="27" rx="7" fill="#FDDBB4"/>
  <rect x="53" y="91" width="14" height="27" rx="7" fill="#FDDBB4"/>

  <!-- ══ SOCKS ══ -->
  <rect x="33.5" y="110" width="13" height="7" rx="3.5" fill="white"/>
  <rect x="53.5" y="110" width="13" height="7" rx="3.5" fill="white"/>
  <path d="M33.5,110.5 Q40,109 46.5,110.5" stroke="#DEDEDE" stroke-width="0.8" fill="none"/>
  <path d="M53.5,110.5 Q60,109 66.5,110.5" stroke="#DEDEDE" stroke-width="0.8" fill="none"/>

  <!-- ══ SHOES ══ -->
  <ellipse cx="40" cy="119.5" rx="9.5" ry="5" fill="#6A5ACD"/>
  <ellipse cx="60" cy="119.5" rx="9.5" ry="5" fill="#6A5ACD"/>
  <!-- Shoe shine -->
  <ellipse cx="37.5" cy="117.5" rx="2.8" ry="1.5" fill="rgba(255,255,255,0.38)"/>
  <ellipse cx="57.5" cy="117.5" rx="2.8" ry="1.5" fill="rgba(255,255,255,0.38)"/>

</svg>
